<?xml version="1.0" standalone="no"?>
<!DOCTYPE svg PUBLIC "-//W3C//DTD SVG 20010904//EN"
 "http://www.w3.org/TR/2001/REC-SVG-20010904/DTD/svg10.dtd">
<svg version="1.0" xmlns="http://www.w3.org/2000/svg"
 width="452.000000pt" height="452.000000pt" viewBox="0 0 452.000000 452.000000"
 preserveAspectRatio="xMidYMid meet">

<g transform="translate(0.000000,452.000000) scale(0.100000,-0.100000)"
fill="#000000" stroke="none">
<path d="M1445 3810 c-434 -159 -811 -297 -837 -308 l-48 -20 0 -1075 0 -1074
846 -462 c465 -253 850 -461 855 -461 5 0 389 207 854 461 l845 461 0 1074 0
1073 -27 15 c-55 27 -1658 606 -1678 605 -11 -1 -375 -131 -810 -289z m1413
-221 c320 -117 581 -213 580 -214 -2 -2 -267 -123 -590 -269 l-588 -267 -590
268 c-423 192 -584 270 -572 276 53 24 1140 415 1157 416 11 1 282 -94 603
-210z m-1364 -709 l626 -285 0 -892 c0 -491 -3 -893 -7 -893 -3 0 -289 154
-635 342 l-628 343 0 838 c0 468 4 837 9 835 4 -1 290 -131 635 -288z m2176
-548 l0 -838 -628 -342 c-346 -188 -632 -342 -635 -342 -4 0 -7 402 -7 893 l0
892 628 287 c345 157 630 286 635 287 4 1 7 -376 7 -837z"/>
<path d="M2130 3515 c-30 -9 -73 -28 -95 -43 -142 -99 15 -234 255 -219 147 8
250 65 250 137 0 42 -43 86 -108 111 -75 28 -224 35 -302 14z"/>
<path d="M1725 2508 c-26 -30 -27 -37 -23 -109 5 -86 33 -146 89 -193 27 -23
39 -27 87 -24 47 3 58 7 76 31 72 97 -40 327 -160 327 -35 0 -47 -5 -69 -32z"/>
<path d="M1387 2209 c-55 -32 -63 -144 -16 -238 47 -94 123 -136 192 -108 28
12 38 24 46 54 23 81 3 163 -56 232 -55 65 -118 88 -166 60z"/>
<path d="M1027 1894 c-61 -61 -43 -195 38 -292 56 -67 162 -65 191 3 34 82 6
184 -72 262 -46 46 -58 53 -92 53 -29 0 -46 -7 -65 -26z"/>
<path d="M2769 2372 c-81 -52 -129 -150 -129 -264 0 -61 3 -72 26 -93 81 -75
207 -21 269 117 83 184 -19 332 -166 240z"/>
<path d="M3285 2046 c-41 -18 -102 -87 -127 -144 -24 -56 -34 -156 -19 -194
25 -64 128 -88 192 -45 108 72 163 260 104 350 -28 43 -94 58 -150 33z"/>
</g>
</svg>
